<?xml version="1.0" encoding="UTF-8" standalone="no"?>
<!-- Created with Inkscape (http://www.inkscape.org/) -->

<svg
   width="144.44608mm"
   height="44.078308mm"
   viewBox="0 0 144.44608 44.078308"
   version="1.1"
   id="svg878"
   xmlns="http://www.w3.org/2000/svg"
   xmlns:svg="http://www.w3.org/2000/svg">
  <defs
     id="defs875" />
  <g
     id="layer1"
     transform="translate(-10.173558,-14.981284)">
    <path
       id="back"
       style="fill:#ff0000;stroke-width:3;stroke-linecap:round;stroke-linejoin:round;stroke-opacity:0.996125;paint-order:fill markers stroke;stop-color:#000000"
       d="M 19.109061,14.981284 H 154.38939 c 0.12755,0 0.23024,0.102689 0.23024,0.230244 v 37.601215 c 0,0.127555 -0.10269,0.230244 -0.23024,0.230244 H 19.109061 c -0.127556,0 -0.230244,-0.102689 -0.230244,-0.230244 V 15.211528 c 0,-0.127555 0.102688,-0.230244 0.230244,-0.230244 z" />
    <path
       id="key1"
       style="fill:#00ffff;stroke-width:3;stroke-linecap:round;stroke-linejoin:round;stroke-opacity:0.996125;paint-order:fill markers stroke;stop-color:#000000"
       d="m 10.403802,28.885494 h 41.175785 c 0.127555,0 0.230244,0.102689 0.230244,0.230244 v 29.713611 c 0,0.127555 -0.102689,0.230244 -0.230244,0.230244 H 10.403802 c -0.127555,0 -0.230244,-0.102689 -0.230244,-0.230244 V 29.115738 c 0,-0.127555 0.102689,-0.230244 0.230244,-0.230244 z" />
    <text
       xml:space="preserve"
       style="font-size:4.23333px;line-height:1.25;font-family:Ubuntu;-inkscape-font-specification:'Ubuntu, Normal';text-align:center;letter-spacing:0px;word-spacing:0px;text-anchor:middle;stroke-width:0.264583"
       x="69.46727"
       y="36.46027"
       id="text1"><tspan
         id="tspan5822"
         style="stroke-width:0.264583"
         x="69.46727"
         y="36.46027">Testy</tspan></text>
  </g>
</svg>
